<svg xmlns="http://www.w3.org/2000/svg" xmlns:xlink="http://www.w3.org/1999/xlink" version="1.1" x="0px" y="0px" viewBox="0 0 100 125" enable-background="new 0 0 100 100" xml:space="preserve"><rect fill="none" width="100" height="100"/><path d="M52.151,50.911c0,0.686-0.562,1.248-1.247,1.248h-35.8c-0.688,0-1.247-0.562-1.247-1.248c0-0.695,0.559-1.251,1.247-1.251  h35.8C51.59,49.659,52.151,50.216,52.151,50.911z M50.904,56.746h-35.8c-0.688,0-1.247,0.557-1.247,1.247s0.559,1.251,1.247,1.251  h35.8c0.686,0,1.247-0.561,1.247-1.251S51.59,56.746,50.904,56.746z M50.904,63.837h-35.8c-0.688,0-1.247,0.557-1.247,1.247  c0,0.686,0.559,1.247,1.247,1.247h35.8c0.686,0,1.247-0.562,1.247-1.247C52.151,64.394,51.59,63.837,50.904,63.837z M50.904,70.923  h-35.8c-0.688,0-1.247,0.558-1.247,1.247c0,0.69,0.559,1.248,1.247,1.248h35.8c0.686,0,1.247-0.558,1.247-1.248  C52.151,71.48,51.59,70.923,50.904,70.923z M39.005,78.015H15.104c-0.688,0-1.247,0.557-1.247,1.247s0.559,1.251,1.247,1.251h23.901  c0.688,0,1.25-0.561,1.25-1.251S39.693,78.015,39.005,78.015z M95,57.623c0,2.2-0.857,4.271-2.414,5.831  c-1.562,1.559-3.633,2.418-5.833,2.418c-2.204,0-4.275-0.859-5.832-2.418L66.008,48.542c-1.579,0.659-3.258,1.113-4.999,1.38v41.228  c0,0.695-0.558,1.252-1.248,1.252H6.247C5.561,92.401,5,91.845,5,91.149V24.841c0-0.69,0.561-1.247,1.247-1.247h30.952  c2.368-9.185,10.694-15.995,20.6-15.995c11.746,0,21.302,9.554,21.302,21.295c0,2.784-0.557,5.438-1.532,7.884l15.018,15.01  C94.143,53.348,95,55.418,95,57.623z M41.501,28.894c0,8.988,7.312,16.302,16.297,16.302c8.993,0,16.31-7.314,16.31-16.302  c0-8.993-7.316-16.302-16.31-16.302C48.813,12.592,41.501,19.901,41.501,28.894z M58.512,50.154c-0.238,0.009-0.468,0.04-0.713,0.04  c-5.271,0-10.09-1.938-13.81-5.123H15.104c-0.688,0-1.247-0.561-1.247-1.251s0.559-1.247,1.247-1.247h26.397  c-1.165-1.39-2.145-2.935-2.931-4.592H15.104c-0.688,0-1.247-0.557-1.247-1.251c0-0.686,0.559-1.247,1.247-1.247h22.458  c-0.677-2.076-1.054-4.285-1.054-6.588c0-0.958,0.083-1.889,0.203-2.802H7.497v63.81h51.015V50.154z M90.007,57.623  c0-0.868-0.336-1.688-0.951-2.303L75.538,41.802l-4.604,4.605L84.45,59.926c1.229,1.226,3.376,1.226,4.605,0  C89.671,59.307,90.007,58.492,90.007,57.623z M57.799,18.427c5.775,0,10.472,4.695,10.472,10.467c0,0.686,0.555,1.247,1.247,1.247  c0.688,0,1.25-0.561,1.25-1.247c0-7.149-5.817-12.966-12.969-12.966c-0.686,0-1.247,0.561-1.247,1.247  C56.552,17.87,57.113,18.427,57.799,18.427z"/><text x="0" y="115" fill="#000000" font-size="5px" font-weight="bold" font-family="'Helvetica Neue', Helvetica, Arial-Unicode, Arial, Sans-serif">Created by hunotika</text><text x="0" y="120" fill="#000000" font-size="5px" font-weight="bold" font-family="'Helvetica Neue', Helvetica, Arial-Unicode, Arial, Sans-serif">from the Noun Project</text></svg>